<svg width="30" height="30" viewBox="0 0 30 30" fill="none" xmlns="http://www.w3.org/2000/svg">
<path d="M16.25 3.75H13.75V16.25H16.25V3.75ZM22.2875 6.4625L20.5125 8.2375C22.4875 9.825 23.75 12.2625 23.75 15C23.75 19.8375 19.8375 23.75 15 23.75C10.1625 23.75 6.25 19.8375 6.25 15C6.25 12.2625 7.5125 9.825 9.475 8.225L7.7125 6.4625C5.2875 8.525 3.75 11.575 3.75 15C3.75 21.2125 8.7875 26.25 15 26.25C21.2125 26.25 26.25 21.2125 26.25 15C26.25 11.575 24.7125 8.525 22.2875 6.4625Z" fill="white"/>
</svg>
