<?xml version="1.0" encoding="iso-8859-1"?>
<!-- Generator: Adobe Illustrator 18.1.1, SVG Export Plug-In . SVG Version: 6.00 Build 0)  -->
<svg version="1.1" id="Capa_1" height = "35px" width = "35px" xmlns="http://www.w3.org/2000/svg" xmlns:xlink="http://www.w3.org/1999/xlink" x="0px" y="0px"
	 viewBox="0 0 312.98 312.98" style="enable-background:new 0 0 312.98 312.98;" xml:space="preserve">
<g>
	<g>
		<path style="fill:#fff;" d="M227.821,124.054V92.703c0-7.832-3.639-15.093-9.616-20.07v-7.093
			c0-15.599-12.706-28.294-28.31-28.294h-11.466v-15.67C178.428,9.682,168.742,0,156.835,0c-11.901,0-21.593,9.682-21.593,21.577
			v15.67H123.07c-15.599,0-28.294,12.695-28.294,28.294v7.114c-5.978,4.982-9.616,12.227-9.616,20.048v193.968
			c0,14.506,11.797,26.309,26.303,26.309h90.038c14.501,0,26.32-11.803,26.32-26.309v-20.532h-46.613v-7.898h46.613v-38.509h-46.613
			v-7.903h46.613v-34.473h-46.613v-7.903h46.613v-37.497h-46.613v-7.903H227.821z M103.424,65.541
			c0-10.84,8.811-19.651,19.651-19.651h20.815V21.577c0-7.136,5.809-12.929,12.95-12.929s12.95,5.798,12.95,12.929v24.313h20.108
			c10.845,0,19.668,8.817,19.668,19.651v3.628H103.424V65.541z"/>
	</g>
</g>
<g>
</g>
<g>
</g>
<g>
</g>
<g>
</g>
<g>
</g>
<g>
</g>
<g>
</g>
<g>
</g>
<g>
</g>
<g>
</g>
<g>
</g>
<g>
</g>
<g>
</g>
<g>
</g>
<g>
</g>
</svg>
