<svg width="35" height="35" viewBox="0 0 35 35" fill="none" xmlns="http://www.w3.org/2000/svg">
<path d="M16.0417 24.7917C16.0417 25.5938 16.6979 26.25 17.5 26.25C18.3021 26.25 18.9583 25.5938 18.9583 24.7917C18.9583 23.9896 18.3021 23.3333 17.5 23.3333C16.6979 23.3333 16.0417 23.9896 16.0417 24.7917ZM16.0417 4.375V10.2083H18.9583V7.40833C23.9021 8.12292 27.7083 12.3521 27.7083 17.5C27.7083 23.1438 23.1438 27.7083 17.5 27.7083C11.8563 27.7083 7.29167 23.1438 7.29167 17.5C7.29167 15.05 8.15208 12.8042 9.59583 11.0542L17.5 18.9583L19.5563 16.9021L9.63958 6.98542V7.01458C6.44583 9.40625 4.375 13.1979 4.375 17.5C4.375 24.7479 10.2375 30.625 17.5 30.625C24.7479 30.625 30.625 24.7479 30.625 17.5C30.625 10.2521 24.7479 4.375 17.5 4.375H16.0417ZM26.25 17.5C26.25 16.6979 25.5938 16.0417 24.7917 16.0417C23.9896 16.0417 23.3333 16.6979 23.3333 17.5C23.3333 18.3021 23.9896 18.9583 24.7917 18.9583C25.5938 18.9583 26.25 18.3021 26.25 17.5ZM8.75 17.5C8.75 18.3021 9.40625 18.9583 10.2083 18.9583C11.0104 18.9583 11.6667 18.3021 11.6667 17.5C11.6667 16.6979 11.0104 16.0417 10.2083 16.0417C9.40625 16.0417 8.75 16.6979 8.75 17.5Z" fill="white"/>
</svg>
