<svg width="35" height="35" viewBox="0 0 35 35" fill="none" xmlns="http://www.w3.org/2000/svg">
<path d="M27.7083 11.6667L21.875 17.5H26.25C26.25 22.3271 22.3271 26.25 17.5 26.25C16.0271 26.25 14.6271 25.8854 13.4166 25.2292L11.2875 27.3583C13.0812 28.4958 15.2104 29.1667 17.5 29.1667C23.9458 29.1667 29.1666 23.9458 29.1666 17.5H33.5416L27.7083 11.6667ZM8.74998 17.5C8.74998 12.6729 12.6729 8.75 17.5 8.75C18.9729 8.75 20.3729 9.11459 21.5833 9.77084L23.7125 7.64167C21.9187 6.50417 19.7896 5.83334 17.5 5.83334C11.0541 5.83334 5.83331 11.0542 5.83331 17.5H1.45831L7.29165 23.3333L13.125 17.5H8.74998Z" fill="white"/>
</svg>
