<svg width="30px" height="30px" viewBox="0 0 30 30" fill="none" xmlns="http://www.w3.org/2000/svg">
<path d="M5.45455 1.36364C5.45455 0.613636 4.84091 0 4.09091 0C3.34091 0 2.72727 0.613636 2.72727 1.36364V6.81818H0V15H8.18182V6.81818H5.45455V1.36364ZM10.9091 20.4545C10.9091 22.2273 12.0545 23.7273 13.6364 24.3V30H16.3636V24.3C17.9455 23.7409 19.0909 22.2409 19.0909 20.4545V17.7273H10.9091V20.4545ZM0 20.4545C0 22.2273 1.14545 23.7273 2.72727 24.3V30H5.45455V24.3C7.03636 23.7273 8.18182 22.2273 8.18182 20.4545V17.7273H0V20.4545ZM27.2727 6.81818V1.36364C27.2727 0.613636 26.6591 0 25.9091 0C25.1591 0 24.5455 0.613636 24.5455 1.36364V6.81818H21.8182V15H30V6.81818H27.2727ZM16.3636 1.36364C16.3636 0.613636 15.75 0 15 0C14.25 0 13.6364 0.613636 13.6364 1.36364V6.81818H10.9091V15H19.0909V6.81818H16.3636V1.36364ZM21.8182 20.4545C21.8182 22.2273 22.9636 23.7273 24.5455 24.3V30H27.2727V24.3C28.8545 23.7409 30 22.2409 30 20.4545V17.7273H21.8182V20.4545Z" fill="white"/>
</svg>
